<?xml version="1.0" standalone="no"?>
<!DOCTYPE svg PUBLIC "-//W3C//DTD SVG 20010904//EN"
 "http://www.w3.org/TR/2001/REC-SVG-20010904/DTD/svg10.dtd">
<svg version="1.0" xmlns="http://www.w3.org/2000/svg"
 width="260.000000pt" height="260.000000pt" viewBox="0 0 260.000000 260.000000"
 preserveAspectRatio="xMidYMid meet">
<metadata>
Created by potrace 1.11, written by Peter Selinger 2001-2013
</metadata>
<g transform="translate(0.000000,260.000000) scale(0.100000,-0.100000)"
fill="#000000" stroke="none">
<path d="M1170 2405 c-8 -2 -49 -8 -90 -15 -175 -27 -348 -96 -509 -204 -274
-183 -468 -475 -537 -806 -19 -93 -25 -329 -11 -435 33 -238 154 -492 324
-675 l65 -70 113 0 113 0 -53 55 c-151 154 -277 403 -301 594 -3 19 -7 39 -11
45 -4 7 -3 8 4 1 6 -5 16 -28 23 -50 41 -131 144 -290 260 -404 68 -66 166
-133 270 -184 87 -43 115 -52 170 -55 l65 -3 -66 29 c-211 92 -376 242 -473
431 -189 366 -125 788 164 1083 114 116 304 224 447 253 169 34 327 31 468
-10 308 -90 535 -306 634 -602 17 -48 33 -101 36 -118 13 -62 14 -261 1 -327
-7 -38 -12 -68 -10 -68 1 0 -8 -28 -21 -62 -12 -35 -25 -72 -29 -83 -4 -11 0
-7 10 9 26 47 62 156 83 257 19 93 23 298 7 374 -39 184 -121 363 -221 480
-100 118 -198 196 -338 269 -105 55 -92 58 40 11 447 -162 740 -547 769 -1012
10 -152 17 -125 11 42 -10 279 -75 483 -227 704 -85 124 -232 269 -345 338
-171 106 -318 164 -505 198 -37 7 -305 15 -330 10z"/>
<path d="M1249 1856 c-3 -3 -19 -7 -37 -11 -109 -19 -257 -121 -329 -226 -177
-258 -111 -613 144 -782 257 -169 580 -119 768 121 45 58 98 176 110 246 28
166 -27 350 -139 469 -120 127 -227 176 -402 183 -61 2 -113 2 -115 0z"/>
</g>
</svg>
